<?xml version="1.0" standalone="no"?>
<!DOCTYPE svg PUBLIC "-//W3C//DTD SVG 20010904//EN"
 "http://www.w3.org/TR/2001/REC-SVG-20010904/DTD/svg10.dtd">
<svg version="1.0" xmlns="http://www.w3.org/2000/svg"
 width="415.000000pt" height="415.000000pt" viewBox="0 0 415.000000 415.000000"
 preserveAspectRatio="xMidYMid meet">

<g transform="translate(0.000000,415.000000) scale(0.100000,-0.100000)"
fill="#000000" stroke="none">
<path d="M0 4120 l0 -30 2075 0 2075 0 0 30 0 30 -2075 0 -2075 0 0 -30z"/>
<path d="M2990 3727 c-75 -23 -261 -115 -267 -133 -2 -5 31 -26 72 -47 145
-75 225 -176 225 -284 0 -98 -53 -220 -215 -488 -93 -154 -148 -271 -181 -384
-28 -97 -46 -242 -36 -287 l7 -32 85 28 c47 16 171 54 275 85 315 93 510 201
657 367 76 84 109 149 140 277 46 187 20 396 -73 578 -67 131 -101 172 -194
234 -116 77 -187 101 -315 105 -88 4 -117 0 -180 -19z"/>
<path d="M960 3523 c-195 -34 -393 -160 -503 -320 -57 -83 -58 -265 -2 -441
43 -135 71 -171 206 -273 377 -282 699 -458 901 -491 22 -4 27 -1 32 25 3 16
6 75 6 132 0 197 -60 360 -247 675 -143 239 -183 334 -183 429 0 74 33 143 94
199 26 24 45 46 43 48 -8 8 -188 34 -227 33 -19 -1 -73 -8 -120 -16z"/>
<path d="M705 1670 c-11 -13 -25 -18 -37 -14 -36 11 -60 -7 -88 -70 -27 -61
-85 -233 -135 -399 -15 -48 -30 -85 -35 -82 -4 3 -10 0 -12 -5 -2 -6 -48 81
-103 192 -109 221 -156 285 -197 273 -13 -4 -29 -12 -35 -19 -14 -13 -5 -33
61 -132 22 -33 84 -148 138 -257 54 -108 107 -206 118 -217 12 -12 33 -20 54
-20 38 0 39 1 71 130 9 36 46 154 81 262 53 162 72 206 104 247 l40 50 35 -14
c68 -29 98 -11 66 39 -38 57 -93 73 -126 36z"/>
<path d="M1882 1678 c-24 -31 26 -84 91 -95 43 -7 53 7 32 46 -27 54 -97 81
-123 49z"/>
<path d="M2340 1630 c-12 -6 -16 -33 -19 -117 -3 -114 -7 -124 -56 -129 -83
-9 -181 -26 -187 -32 -9 -9 12 -52 34 -66 12 -7 43 -6 108 3 50 7 94 10 98 7
3 -4 9 -63 14 -132 10 -158 25 -198 79 -202 46 -4 54 13 33 70 -8 24 -18 93
-21 154 -6 110 -6 112 18 127 20 12 140 35 224 42 29 2 33 57 6 84 -24 24 -53
27 -84 7 -12 -8 -53 -19 -91 -26 -92 -15 -99 -4 -75 124 9 50 8 60 -7 77 -18
20 -49 24 -74 9z"/>
<path d="M1648 1497 c-80 -48 -188 -269 -188 -383 0 -112 91 -173 196 -129 45
18 147 98 177 139 41 54 49 74 37 96 -18 34 -47 23 -113 -41 -102 -101 -188
-145 -203 -105 -9 24 24 134 62 207 36 68 102 149 122 149 6 0 15 -15 21 -33
6 -17 20 -38 31 -45 18 -11 21 -9 30 13 19 50 12 85 -24 121 -42 42 -92 46
-148 11z"/>
<path d="M749 1496 c-2 -3 -1 -56 3 -118 28 -404 30 -416 80 -429 41 -11 47 9
31 109 -7 48 -13 154 -13 235 0 178 -10 206 -71 207 -14 0 -28 -2 -30 -4z"/>
<path d="M1919 1495 c-3 -2 -2 -44 2 -92 5 -48 12 -156 18 -239 5 -82 15 -162
22 -177 6 -14 25 -30 40 -36 44 -15 50 6 33 129 -7 58 -14 166 -14 241 0 122
-2 137 -20 157 -18 20 -68 30 -81 17z"/>
<path d="M3435 1487 c-17 -8 -45 -32 -63 -53 -18 -21 -43 -50 -55 -64 l-22
-25 -5 54 c-4 36 -12 58 -25 67 -24 18 -64 18 -71 1 -2 -7 -1 -115 4 -241 8
-202 12 -230 28 -247 11 -10 30 -20 44 -21 l25 -3 1 96 c1 92 3 100 38 165 42
76 121 183 142 191 7 2 28 -7 46 -21 40 -30 77 -30 91 1 7 17 6 28 -7 47 -35
55 -113 79 -171 53z"/>
<path d="M3857 1486 c-63 -23 -113 -64 -149 -124 -48 -80 -58 -106 -65 -173
-14 -140 79 -230 227 -216 103 9 182 64 229 159 36 71 40 113 12 128 -25 13
-51 3 -51 -20 0 -26 -53 -94 -105 -134 -111 -84 -230 -44 -212 71 8 49 20 58
97 77 84 22 197 74 216 100 17 25 18 75 0 98 -33 44 -127 59 -199 34z m113
-73 c0 -19 -144 -92 -156 -80 -9 8 31 49 64 67 37 19 92 27 92 13z"/>
<path d="M987 1477 c-27 -9 -28 -12 -22 -46 4 -20 17 -118 29 -218 13 -101 29
-189 36 -198 7 -8 27 -15 44 -15 31 0 34 3 92 127 61 131 121 233 138 233 6 0
7 -76 3 -199 -7 -218 -8 -215 51 -223 53 -8 57 11 45 235 -11 217 -24 263 -77
280 -61 20 -109 -30 -195 -200 -36 -71 -47 -57 -54 66 -9 155 -23 181 -90 158z"/>
<path d="M2811 1448 c-32 -17 -104 -159 -121 -237 -33 -155 26 -241 165 -241
76 0 118 12 177 49 58 37 99 97 105 154 6 54 -9 87 -74 150 -26 26 -56 57 -65
67 -10 11 -30 20 -46 20 -19 0 -30 7 -37 23 -12 26 -67 34 -104 15z m89 -107
c0 -5 17 -20 37 -32 68 -42 103 -79 103 -109 0 -61 -102 -140 -181 -140 -73 0
-79 5 -79 61 0 55 15 98 63 177 28 46 57 68 57 43z"/>
<path d="M780 728 c0 -83 2 -149 5 -147 2 3 5 60 6 127 1 114 2 121 19 109 16
-11 165 -144 196 -174 23 -23 34 -14 33 30 0 28 -3 36 -8 23 -6 -15 -23 -3
-118 83 -61 56 -116 101 -122 101 -8 0 -11 -48 -11 -152z"/>
<path d="M1555 690 c-52 -104 -95 -194 -95 -200 0 -18 35 24 59 70 13 25 45
88 71 140 26 53 55 102 64 110 15 12 18 11 23 -8 3 -12 9 -22 14 -22 5 0 8 -3
7 -7 -1 -5 4 -19 12 -33 37 -66 109 -220 102 -220 -3 0 4 -7 16 -16 13 -9 26
-14 28 -11 8 7 -185 387 -196 387 -5 0 -53 -85 -105 -190z"/>
<path d="M2445 868 c-76 -26 -136 -107 -134 -179 l1 -34 11 30 c39 99 101 143
197 140 63 -2 122 -22 102 -34 -10 -6 -9 -11 3 -21 14 -12 16 -12 14 1 -1 7 2
22 6 33 5 10 4 25 -2 34 -22 36 -134 52 -198 30z"/>
<path d="M3170 849 c0 -16 4 -28 10 -24 10 6 35 -13 118 -92 30 -29 56 -53 59
-53 2 0 16 -11 31 -25 15 -14 31 -23 37 -21 17 6 5 38 -23 60 -15 12 -67 58
-117 104 -49 45 -96 82 -102 82 -8 0 -13 -13 -13 -31z"/>
<path d="M3885 861 c-51 -23 -101 -79 -114 -128 -14 -48 -14 -60 -1 -68 6 -4
9 -3 8 2 -4 16 24 83 33 78 5 -4 9 -1 9 6 0 16 38 48 77 64 40 17 136 13 159
-6 9 -8 20 -13 23 -13 3 1 5 -2 3 -8 -1 -5 2 -7 8 -3 5 3 10 19 10 35 0 23 -7
30 -40 44 -53 21 -125 20 -175 -3z"/>
<path d="M60 691 c0 -99 3 -181 8 -181 4 0 6 70 4 156 l-3 156 73 -6 c40 -4
88 -8 106 -8 25 0 32 -5 33 -22 0 -11 3 -15 6 -8 2 6 10 12 17 12 22 0 79 -54
93 -89 18 -42 26 -35 17 14 -8 46 -54 99 -108 127 -31 16 -66 22 -143 26
l-103 5 0 -182z"/>
<path d="M465 860 c-3 -6 -4 -18 -1 -28 5 -15 22 -17 130 -20 117 -2 125 -1
131 18 3 11 3 24 0 30 -4 6 -58 10 -130 10 -72 0 -126 -4 -130 -10z"/>
<path d="M1030 845 c0 -23 4 -25 45 -25 25 0 48 -1 53 -2 4 -2 8 9 10 25 3 27
2 27 -52 27 -53 0 -56 -1 -56 -25z"/>
<path d="M1162 843 l3 -28 177 0 c150 0 177 2 181 15 10 38 0 40 -184 40
l-180 0 3 -27z"/>
<path d="M1880 689 c1 -99 4 -178 7 -176 3 3 4 73 4 156 l-2 151 45 0 45 0 4
-102 3 -103 2 128 2 127 -55 0 -56 0 1 -181z"/>
<path d="M2690 856 c0 -35 10 -41 65 -38 50 4 55 6 55 28 0 23 -3 24 -60 24
-45 0 -60 -4 -60 -14z"/>
<path d="M2991 828 c1 -24 3 -35 6 -25 4 14 13 17 46 15 l42 -3 0 -153 c0 -83
3 -152 8 -152 4 0 7 81 7 180 l0 180 -55 0 -55 0 1 -42z"/>
<path d="M3424 857 c-2 -7 0 -24 5 -38 5 -13 10 -18 10 -11 1 7 16 12 40 12
40 0 40 0 44 -42 2 -31 4 -24 5 25 l2 67 -50 0 c-33 0 -52 -5 -56 -13z"/>
<path d="M3600 843 c0 -27 1 -28 50 -25 37 3 50 0 51 -10 0 -7 5 0 9 16 5 16
7 33 4 38 -3 4 -30 8 -60 8 -52 0 -54 -1 -54 -27z"/>
<path d="M1291 744 c0 -11 3 -14 6 -6 3 7 2 16 -1 19 -3 4 -6 -2 -5 -13z"/>
<path d="M1389 658 c0 -57 -2 -113 -3 -125 -2 -13 1 -23 5 -23 4 0 8 56 8 125
1 69 -1 125 -4 125 -3 0 -5 -46 -6 -102z"/>
<path d="M570 696 c0 -28 8 -32 78 -35 52 -2 52 -2 52 28 l0 31 -65 0 c-62 0
-65 -1 -65 -24z"/>
<path d="M1293 675 c0 -27 2 -38 4 -22 2 15 2 37 0 50 -2 12 -4 0 -4 -28z"/>
<path d="M3522 680 c0 -14 2 -19 5 -12 2 6 2 18 0 25 -3 6 -5 1 -5 -13z"/>
<path d="M2414 633 c3 -52 7 -65 31 -87 16 -15 38 -28 49 -31 62 -12 78 -12
83 1 4 12 8 12 21 2 11 -9 14 -9 9 -1 -5 7 2 19 18 29 15 10 25 26 25 40 0 29
-3 30 -39 3 -16 -12 -49 -23 -73 -26 -37 -4 -49 -1 -75 21 -21 17 -36 42 -42
69 -10 41 -10 40 -7 -20z"/>
<path d="M288 619 c-20 -33 -60 -52 -100 -46 -30 4 -36 -10 -18 -43 8 -16 15
-17 42 -9 41 11 41 11 32 -3 -4 -7 -3 -8 5 -4 6 4 9 12 6 17 -4 5 0 9 8 9 7 0
20 11 27 25 7 14 17 25 20 25 7 0 5 48 -2 55 -2 2 -11 -10 -20 -26z"/>
<path d="M3868 626 c-3 -14 -1 -26 5 -26 6 0 7 -3 4 -6 -10 -10 33 -64 57 -73
32 -12 116 -22 91 -11 -18 8 -18 9 -2 9 10 1 30 9 44 19 19 12 25 13 19 3 -6
-9 -5 -12 1 -8 11 7 24 80 14 74 -111 -64 -185 -58 -216 17 l-12 28 -5 -26z"/>
<path d="M1632 603 c-7 -2 -17 -13 -22 -24 -10 -18 -7 -19 39 -19 45 0 49 2
47 23 -1 17 -7 23 -26 24 -14 1 -31 -1 -38 -4z"/>
<path d="M3522 570 c0 -19 2 -27 5 -17 2 9 2 25 0 35 -3 9 -5 1 -5 -18z"/>
<path d="M1986 550 c1 -14 2 -28 3 -33 2 -13 151 -4 153 10 0 7 1 19 2 26 1 8
-24 14 -79 17 l-81 5 2 -25z"/>
<path d="M2350 576 c0 -2 8 -10 18 -17 15 -13 16 -12 3 4 -13 16 -21 21 -21
13z"/>
<path d="M2800 543 l0 -33 80 0 80 0 0 29 0 29 -80 4 -80 3 0 -32z"/>
<path d="M567 556 c-3 -8 0 -21 6 -31 10 -13 27 -15 82 -13 68 3 70 4 73 31
l3 27 -79 0 c-59 0 -81 -4 -85 -14z"/>
<path d="M780 540 c0 -16 4 -30 8 -30 5 0 7 14 4 30 -2 17 -6 30 -8 30 -2 0
-4 -13 -4 -30z"/>
<path d="M1060 546 c0 -2 8 -10 18 -17 15 -13 16 -12 3 4 -13 16 -21 21 -21
13z"/>
<path d="M3702 530 c0 -14 2 -19 5 -12 2 6 2 18 0 25 -3 6 -5 1 -5 -13z"/>
<path d="M2991 524 c0 -11 3 -14 6 -6 3 7 2 16 -1 19 -3 4 -6 -2 -5 -13z"/>
<path d="M0 40 l0 -30 2075 0 2075 0 0 30 0 30 -2075 0 -2075 0 0 -30z"/>
</g>
</svg>
