<?xml version="1.0" ?><!DOCTYPE svg  PUBLIC '-//W3C//DTD SVG 1.1//EN'  'http://www.w3.org/Graphics/SVG/1.1/DTD/svg11.dtd'><svg enable-background="new 0 0 512 512" height="512px" id="Teeth" version="1.1" viewBox="0 0 512 512" width="512px" xml:space="preserve" xmlns="http://www.w3.org/2000/svg" xmlns:xlink="http://www.w3.org/1999/xlink"><path d="M472.351,205.993h-22.182l4.52-18.896c4.296-17.967,0.078-36.166-10.747-46.369c-7.508-7.074-17.136-9.309-27.105-6.288  l-14.289,4.331c-9.898,3.002-19.938,3.003-29.839-0.001l-14.288-4.33c-9.973-3.02-19.597-0.786-27.104,6.288  c-3.95,3.723-7.009,8.518-9.106,13.97c-2.099-5.452-5.157-10.247-9.106-13.97c-7.508-7.074-17.135-9.309-27.105-6.288l-14.29,4.331  c-9.897,3.004-19.936,3.003-29.838-0.001l-14.288-4.33c-9.972-3.02-19.598-0.786-27.104,6.288c-3.95,3.723-7.008,8.518-9.106,13.97  c-2.098-5.452-5.157-10.247-9.106-13.97c-7.506-7.073-17.13-9.308-27.104-6.288l-14.29,4.331  c-9.899,3.002-19.938,3.003-29.839-0.001l-14.288-4.33c-9.971-3.019-19.597-0.786-27.104,6.288  c-10.825,10.201-15.043,28.402-10.747,46.369l4.519,18.896H39.66c-13.162,0-23.87,10.709-23.87,23.871v144.009c0,2.762,2.239,5,5,5  h470.42c2.762,0,5-2.238,5-5V229.864C496.21,216.702,485.507,205.993,472.351,205.993z M338.174,148.004  c3.39-3.192,9.154-6.476,17.347-3.995l14.285,4.329c11.826,3.589,23.819,3.59,35.644,0.001l14.286-4.33  c8.2-2.481,13.959,0.803,17.348,3.996c8.138,7.669,11.304,22.443,7.879,36.765l-21.959,91.818c-0.164,0.685-0.411,1.338-0.725,1.949  c-0.008,0.016-0.015,0.031-0.022,0.047s-0.018,0.03-0.025,0.045c-0.104,0.195-0.214,0.388-0.332,0.574  c-0.129,0.199-0.262,0.399-0.402,0.585c-0.02,0.026-0.04,0.053-0.059,0.079c-0.007,0.009-0.014,0.017-0.021,0.025  c-0.13,0.176-0.274,0.34-0.385,0.47c-0.013,0.015-0.026,0.028-0.04,0.043c-0.081,0.092-0.166,0.181-0.251,0.269  c-0.047,0.048-0.096,0.099-0.132,0.133c-0.177,0.164-0.351,0.332-0.604,0.534c-0.882,0.725-1.867,1.246-2.887,1.539  c-0.108,0.03-0.22,0.054-0.33,0.08c-0.092,0.021-0.184,0.047-0.276,0.065c-0.426,0.081-0.859,0.125-1.296,0.125  c-0.022-0.001-0.042-0.01-0.063-0.016c-0.023-0.006-0.046-0.007-0.068-0.019c-0.02-0.011-0.037-0.028-0.055-0.044  c-0.021-0.016-0.044-0.029-0.062-0.05c-0.067-0.077-0.113-0.184-0.122-0.303c-0.052-0.674-0.115-1.403-0.188-2.173  c-0.556-6.061-1.518-12.526-2.774-18.837c-2.313-11.87-5.99-25.086-11.33-33.747c-0.103-0.169-0.207-0.324-0.311-0.489  c-0.136-0.213-0.271-0.423-0.408-0.63c-2.729-4.164-5.668-6.754-8.846-7.807c-0.037-0.013-0.075-0.026-0.112-0.038  c-0.235-0.075-0.472-0.148-0.71-0.207c-0.32-0.081-0.644-0.146-0.971-0.195c-0.119-0.018-0.238-0.03-0.356-0.044  c-0.398-0.048-0.8-0.08-1.209-0.08c-0.001,0-0.001,0-0.001,0h-0.001c-0.001,0-0.002,0-0.003,0c-0.424,0.001-0.843,0.032-1.26,0.084  c-0.077,0.009-0.154,0.014-0.231,0.025c-0.361,0.052-0.72,0.127-1.076,0.217c-0.142,0.035-0.282,0.071-0.423,0.113  c-0.307,0.09-0.611,0.194-0.914,0.313c-0.19,0.074-0.379,0.157-0.567,0.243c-0.172,0.078-0.343,0.164-0.514,0.252  c-0.31,0.159-0.617,0.332-0.922,0.521c-0.117,0.073-0.234,0.149-0.351,0.228c-0.338,0.224-0.673,0.468-1.005,0.73  c-0.123,0.097-0.246,0.196-0.368,0.298c-0.281,0.236-0.561,0.487-0.838,0.752c-0.177,0.168-0.353,0.339-0.527,0.518  c-0.167,0.172-0.334,0.344-0.5,0.526c-0.275,0.302-0.548,0.62-0.818,0.95c-0.136,0.165-0.27,0.334-0.404,0.507  c-0.273,0.351-0.546,0.712-0.814,1.092c-0.012,0.017-0.022,0.034-0.034,0.05c-0.109,0.155-0.217,0.316-0.325,0.476  c-0.245,0.361-0.485,0.724-0.702,1.078c-0.007,0.012-0.015,0.024-0.021,0.035c-0.202,0.323-0.402,0.658-0.602,0.999  c-0.118,0.2-0.233,0.402-0.35,0.608c-0.68,1.201-1.347,2.507-2,3.915c-0.157,0.337-0.314,0.673-0.47,1.021  c-0.135,0.305-0.27,0.616-0.403,0.93c-0.234,0.545-0.466,1.104-0.696,1.675c-0.075,0.188-0.15,0.372-0.225,0.562  c-1.215,3.075-2.371,6.499-3.459,10.272c-0.525,1.828-0.965,3.45-1.345,4.961c-0.492,1.961-0.877,3.577-1.205,5.055  c-0.198,0.87-0.388,1.75-0.561,2.605c-0.139,0.668-0.27,1.347-0.401,2.022c-0.008,0.039-0.016,0.077-0.023,0.116  c-0.138,0.703-0.271,1.409-0.402,2.121c-0.066,0.363-0.132,0.727-0.197,1.091c-0.089,0.497-0.178,0.993-0.262,1.493  c-0.139,0.809-0.271,1.616-0.398,2.424c-0.02,0.126-0.041,0.251-0.061,0.377c-0.161,1.035-0.313,2.066-0.456,3.094  c-0.005,0.035-0.011,0.07-0.016,0.105c-0.094,0.669-0.179,1.329-0.262,1.988c-0.013,0.094-0.025,0.188-0.038,0.282  c-0.097,0.772-0.185,1.531-0.268,2.28c-0.011,0.098-0.023,0.195-0.033,0.292c-0.006,0.052-0.013,0.105-0.019,0.157  c-0.009,0.078-0.013,0.152-0.021,0.231c-0.165,1.543-0.31,3.068-0.424,4.561c-0.005,0.052-0.018,0.101-0.036,0.147  c-0.001,0.004-0.001,0.008-0.002,0.012c-0.045,0.104-0.121,0.189-0.214,0.235c-0.045,0.021-0.095,0.034-0.146,0.034  c-3.53,0-6.867-2.821-7.762-6.563l-21.958-91.818C326.87,170.449,330.036,155.673,338.174,148.004z M322.209,193.958l2.879,12.034  h-5.757L322.209,193.958z M207.335,148.004c3.388-3.192,9.148-6.477,17.347-3.995l14.286,4.329  c11.826,3.589,23.819,3.59,35.642,0.001l14.287-4.33c8.199-2.481,13.959,0.803,17.348,3.996c8.138,7.669,11.304,22.443,7.879,36.765  l-21.959,91.818c-0.111,0.465-0.26,0.915-0.442,1.348c-0.556,1.31-1.431,2.487-2.538,3.397c-0.892,0.729-1.886,1.255-2.91,1.548  c-0.081,0.022-0.163,0.039-0.245,0.06c-0.119,0.03-0.239,0.062-0.359,0.085c-0.425,0.081-0.857,0.125-1.293,0.125  c-0.027-0.001-0.055-0.012-0.081-0.021c-0.016-0.005-0.032-0.005-0.048-0.013c-0.031-0.016-0.057-0.041-0.083-0.065  c-0.012-0.011-0.024-0.017-0.035-0.029c-0.026-0.03-0.048-0.068-0.066-0.106c-0.005-0.011-0.013-0.019-0.018-0.028  c-0.021-0.052-0.036-0.108-0.04-0.168c-0.047-0.611-0.104-1.271-0.168-1.962c-0.563-6.233-1.559-12.904-2.865-19.4  c-2.313-11.763-5.963-24.787-11.239-33.361c-0.136-0.225-0.274-0.432-0.411-0.648c-0.093-0.146-0.187-0.289-0.279-0.432  c-2.749-4.216-5.711-6.833-8.915-7.887c-0.026-0.009-0.053-0.018-0.079-0.027c-0.241-0.076-0.482-0.151-0.727-0.211  c-0.317-0.08-0.639-0.144-0.962-0.193c-0.121-0.019-0.242-0.031-0.364-0.046c-0.397-0.047-0.798-0.079-1.206-0.079  s-0.809,0.032-1.207,0.079c-0.122,0.015-0.243,0.027-0.363,0.046c-0.324,0.05-0.646,0.113-0.962,0.193  c-0.243,0.06-0.484,0.134-0.725,0.211c-0.028,0.01-0.057,0.02-0.084,0.029c-3.198,1.052-6.154,3.662-8.898,7.865  c-0.106,0.16-0.212,0.324-0.317,0.488c-0.127,0.201-0.255,0.393-0.381,0.602c-5.276,8.569-8.926,21.589-11.241,33.352  c-1.31,6.511-2.308,13.197-2.871,19.444c-0.064,0.686-0.121,1.339-0.167,1.946c-0.002,0.028-0.013,0.054-0.02,0.081  c-0.049,0.187-0.196,0.339-0.378,0.34c-3.53,0-6.867-2.821-7.762-6.563l-21.959-91.818  C196.031,170.449,199.198,155.673,207.335,148.004z M191.371,193.958l2.878,12.035h-5.756L191.371,193.958z M76.498,148.004  c3.388-3.192,9.148-6.477,17.347-3.995l14.286,4.329c11.826,3.589,23.818,3.59,35.643,0.001l14.287-4.33  c8.198-2.481,13.959,0.803,17.347,3.995c8.138,7.67,11.305,22.444,7.88,36.766l-21.958,91.818c-0.017,0.07-0.041,0.138-0.059,0.208  c-0.47,1.76-1.502,3.368-2.925,4.538c-0.891,0.729-1.883,1.254-2.907,1.547c-0.082,0.023-0.166,0.04-0.248,0.061  c-0.119,0.029-0.238,0.061-0.358,0.084c-0.425,0.082-0.858,0.125-1.293,0.125c-0.032-0.001-0.063-0.012-0.092-0.023  c-0.012-0.005-0.025-0.004-0.037-0.011c-0.085-0.045-0.159-0.129-0.202-0.231c-0.021-0.051-0.035-0.105-0.04-0.162  c-0.004-0.052-0.009-0.105-0.013-0.157c-0.04-0.509-0.085-1.044-0.137-1.606c-0.566-6.371-1.587-13.205-2.932-19.85  c-2.315-11.691-5.947-24.585-11.182-33.1c-0.149-0.247-0.301-0.476-0.452-0.713c-0.076-0.117-0.151-0.234-0.227-0.35  c-2.758-4.239-5.73-6.868-8.947-7.921c-0.02-0.007-0.04-0.014-0.059-0.021c-0.245-0.079-0.49-0.154-0.737-0.215  c-0.315-0.08-0.634-0.143-0.956-0.192c-0.122-0.019-0.245-0.031-0.368-0.046c-0.396-0.047-0.795-0.078-1.201-0.079  c-0.001,0-0.002,0-0.002,0s0,0,0,0c0,0-0.001,0-0.001,0c-0.409,0-0.81,0.032-1.208,0.08c-0.119,0.014-0.239,0.026-0.357,0.044  c-0.327,0.051-0.65,0.114-0.97,0.195c-0.239,0.059-0.476,0.132-0.711,0.207c-0.037,0.012-0.073,0.025-0.109,0.038  c-3.178,1.051-6.117,3.641-8.846,7.805c-0.14,0.209-0.277,0.423-0.415,0.638c-0.102,0.163-0.205,0.315-0.306,0.482  c-5.319,8.626-8.988,21.775-11.303,33.611c-1.278,6.395-2.254,12.952-2.813,19.089c-0.068,0.73-0.129,1.425-0.178,2.067  c-0.004,0.056-0.018,0.109-0.039,0.159c-0.066,0.15-0.201,0.262-0.358,0.262c-3.53,0-6.867-2.821-7.762-6.563L68.618,184.77  C65.193,170.449,68.359,155.674,76.498,148.004z M486.21,368.873H25.79V229.864c0-7.648,6.222-13.871,13.87-13.871h26.135  l15.052,62.925c1.088,4.54,3.811,8.388,7.412,10.936c0.078,0.056,0.151,0.118,0.23,0.172c0.147,0.101,0.303,0.188,0.454,0.284  c0.271,0.175,0.54,0.354,0.82,0.514c0.008,0.005,0.018,0.009,0.025,0.014c1.296,0.736,2.68,1.314,4.125,1.708  c0.276,0.075,0.559,0.129,0.839,0.19c0.21,0.046,0.417,0.104,0.63,0.142c0.998,0.182,2.018,0.275,3.052,0.275  c4.611-0.031,8.588-3.188,9.865-7.497c0.021-0.07,0.048-0.138,0.068-0.208c0.019-0.069,0.03-0.143,0.047-0.213  c0.143-0.565,0.247-1.147,0.292-1.746c0.704-9.179,2.462-19.551,4.814-28.772c0.011-0.04,0.02-0.081,0.03-0.121  c0.052-0.203,0.106-0.401,0.159-0.604c0.746-2.864,1.546-5.615,2.391-8.171c1.826-5.518,3.569-9.349,5.076-11.982  c2.426-4.238,4.236-5.363,4.773-5.365c0.397,0.001,1.497,0.621,3.026,2.666c1.815,2.428,4.239,6.865,6.825,14.684  c0.201,0.607,0.398,1.229,0.594,1.855c3.33,10.677,5.907,24.193,6.799,35.814c0.02,0.25,0.057,0.493,0.094,0.737  c0.706,4.728,4.578,8.419,9.341,8.871c0.31,0.03,0.623,0.05,0.94,0.052c0.501,0,1.002-0.023,1.502-0.07  c7.059-0.639,13.277-5.713,15.564-12.702c0.159-0.481,0.298-0.97,0.416-1.464l0-0.001c0-0.001,0-0.001,0-0.001l0.081-0.338  l14.971-62.583h10.53l15.053,62.925c0.858,3.583,2.733,6.736,5.254,9.16c0.018,0.018,0.033,0.036,0.05,0.053  c0.276,0.263,0.566,0.509,0.857,0.754c0.093,0.079,0.18,0.165,0.274,0.242c0.319,0.258,0.651,0.498,0.985,0.734  c0.074,0.053,0.144,0.112,0.219,0.164c2.892,1.98,6.33,3.127,9.938,3.127c0.632-0.004,1.251-0.072,1.854-0.188  c0.035-0.007,0.07-0.009,0.104-0.016c0.152-0.031,0.299-0.076,0.449-0.114c0.165-0.041,0.333-0.076,0.495-0.126  c0.059-0.018,0.113-0.042,0.171-0.061c0.249-0.081,0.497-0.165,0.738-0.265c0.009-0.004,0.017-0.008,0.026-0.012  c0.287-0.119,0.568-0.25,0.842-0.394c0.014-0.008,0.028-0.018,0.043-0.024c0.266-0.142,0.526-0.293,0.779-0.456  c0.087-0.056,0.167-0.121,0.253-0.181c0.175-0.12,0.352-0.238,0.519-0.37c0.208-0.162,0.405-0.337,0.6-0.515  c0.039-0.035,0.081-0.066,0.119-0.102c1.742-1.636,2.925-3.866,3.229-6.364c0.02-0.159,0.047-0.315,0.06-0.478  c0.166-2.167,0.394-4.403,0.671-6.673c0.018-0.146,0.033-0.288,0.051-0.434c0.001-0.014,0.004-0.028,0.005-0.042  c1.313-10.467,3.732-21.642,6.668-30.519c4.765-14.403,8.979-17.348,9.848-17.348s5.083,2.944,9.848,17.348  c2.468,7.459,4.568,16.541,5.956,25.458c0.012,0.074,0.024,0.15,0.036,0.225c0.021,0.131,0.038,0.262,0.058,0.394  c0.601,3.954,1.062,7.87,1.347,11.589c0.02,0.256,0.057,0.506,0.095,0.757c0.012,0.076,0.016,0.155,0.029,0.231  c0.025,0.15,0.065,0.295,0.098,0.443c0.039,0.176,0.071,0.354,0.119,0.527c0.021,0.077,0.05,0.149,0.072,0.225  c0.071,0.238,0.144,0.477,0.23,0.707c0.017,0.044,0.039,0.086,0.057,0.13c0.102,0.258,0.208,0.513,0.329,0.76  c0.021,0.043,0.047,0.083,0.069,0.126c0.123,0.244,0.251,0.484,0.393,0.716c0.057,0.095,0.123,0.182,0.184,0.273  c0.114,0.175,0.226,0.353,0.35,0.52c0.115,0.155,0.242,0.3,0.364,0.448c0.08,0.096,0.154,0.197,0.237,0.291  c1.6,1.794,3.807,3.023,6.279,3.388c0.479,0.071,0.965,0.121,1.461,0.124c0.502,0,1.003-0.023,1.502-0.07  c7.057-0.635,13.274-5.701,15.567-12.683c0.161-0.487,0.304-0.982,0.424-1.483l15.052-62.923h10.529l14.903,62.301l0.148,0.62v0.001  l0.001,0.003c0.024,0.104,0.061,0.204,0.087,0.308c1.16,4.503,3.92,8.313,7.553,10.801c0.22,0.15,0.45,0.283,0.677,0.424  c0.198,0.123,0.391,0.256,0.594,0.372c2.605,1.488,5.573,2.33,8.668,2.33c0.563-0.004,1.112-0.064,1.652-0.157  c4.145-0.712,7.512-3.944,8.41-8.103c0.1-0.456,0.18-0.918,0.217-1.394c0.104-1.316,0.229-2.669,0.371-4.044  c0.019-0.179,0.035-0.355,0.055-0.536c0.04-0.369,0.087-0.751,0.131-1.128c0.048-0.412,0.094-0.824,0.145-1.239  c0.093-0.738,0.19-1.485,0.296-2.24c0.287-2.065,0.607-4.12,0.958-6.153c0.003-0.017,0.006-0.032,0.009-0.049  c0.331-1.914,0.692-3.804,1.076-5.67c0.378-1.833,0.779-3.65,1.206-5.431c0.016-0.065,0.032-0.133,0.048-0.199  c0.368-1.528,0.753-3.031,1.152-4.497c0.001-0.005,0.003-0.01,0.004-0.015c0.203-0.743,0.409-1.479,0.62-2.202  c0.022-0.079,0.046-0.153,0.068-0.231c0.406-1.39,0.824-2.741,1.254-4.042c0.083-0.251,0.165-0.49,0.248-0.734  c0.108-0.318,0.217-0.636,0.326-0.948c0.093-0.267,0.187-0.534,0.279-0.793c0.181-0.503,0.363-0.996,0.546-1.479  c0.065-0.173,0.131-0.342,0.196-0.51c0.207-0.536,0.415-1.063,0.625-1.571c0.021-0.052,0.042-0.101,0.063-0.151  c0.744-1.791,1.503-3.415,2.267-4.839c0.385-0.726,0.775-1.404,1.198-2.074c0.241-0.396,0.492-0.767,0.738-1.116  c1.806-2.556,3.066-3.133,3.365-3.134c0.626,0.002,2.979,1.525,6.021,7.725c1.19,2.428,2.487,5.572,3.827,9.623  c0.511,1.545,1.004,3.166,1.481,4.834c2.897,10.145,5.104,22.275,5.913,32.832c0.378,4.939,4.204,8.904,9.021,9.56  c0.441,0.061,0.89,0.104,1.347,0.106c0.503,0,1.006-0.023,1.507-0.07c0.43-0.039,0.855-0.102,1.278-0.174  c0.058-0.009,0.115-0.013,0.173-0.023c3.208-0.573,6.181-2.069,8.63-4.22c0.031-0.027,0.064-0.057,0.096-0.085  c2.051-1.824,3.729-4.107,4.835-6.719c0.406-0.953,0.732-1.937,0.975-2.945l15.052-62.923h24.565  c7.642,0,13.859,6.223,13.859,13.871V368.873z"/></svg>