<?xml version="1.0" ?><svg viewBox="0 0 512 512" xmlns="http://www.w3.org/2000/svg"><g id="Dental_Clinic"><path d="M413.6445,120.0983h-43.49v-43.49a6,6,0,0,0-6-6H281.4492a6,6,0,0,0-6,6v43.49H231.958a6,6,0,0,0-6,6V188.98a39.4886,39.4886,0,0,1-14.38,2.69,38.9291,38.9291,0,0,1-18.1894-4.4248c-19.9785-10.5967-43.7569-9.5478-62.0537,2.7344a87.7178,87.7178,0,0,0-37.33,89.7851L120.2969,414.67a33.0422,33.0422,0,0,0,64.0439,3.2959l16.1875-53.21a11.5506,11.5506,0,0,1,22.1006-.0009l16.1875,53.2109A33.0422,33.0422,0,0,0,302.86,414.67l26.291-134.9043a88.236,88.236,0,0,0,1.614-15.4707h33.3889a6,6,0,0,0,6-6v-43.49h43.49a6,6,0,0,0,6-6V126.0983A6,6,0,0,0,413.6445,120.0983ZM313.4473,276.7038l-26.292,134.9053a17.0425,17.0425,0,0,1-33.0323,1.7l-16.1875-53.212a27.55,27.55,0,0,0-52.7138.001l-16.1875,53.211a17.0424,17.0424,0,0,1-33.0322-1.7L109.71,276.7028a71.75,71.75,0,0,1,30.5429-73.4394c13.3916-8.9922,30.8789-9.7129,45.64-1.8838a55.593,55.593,0,0,0,51.373,0c14.7578-7.8291,32.2451-7.1084,45.6387,1.8838v-.001A71.7513,71.7513,0,0,1,313.4473,276.7038Z"/></g></svg>