<?xml version="1.0" ?><svg xmlns="http://www.w3.org/2000/svg" id="Layer_5" data-name="Layer 5" width="512" height="512" viewBox="0 0 512 512"><defs><style>
      .cls-1 {
        stroke-width: 0px;
      }
    </style></defs><path class="cls-1" d="m490,202.814c9.925,0,18-8.075,18-18v-5.665c0-9.925-8.075-18-18-18h-57.359v-42.351c.068-3.317-2.952-6.227-6.271-5.993-3.313,0-6,2.686-6,6,0,.622.095,1.222.271,1.787v40.557h-142.199v-16.281c7.086-1.687,12.752-7.969,13.574-15.225.305-1.581.099-6.272.158-7.929,0-9.925-8.075-18-18-18h-92.631v-28.849l239.099-28.072v22.133c-1.353,3.884,1.819,8.115,5.936,7.886,3.223.106,6.14-2.755,6.064-5.999,0,0,0-25.428,0-25.428,9.083-1.042,15.948-8.739,15.946-17.882v-5.5c0-5.135-2.2-10.037-6.037-13.449-3.837-3.413-8.967-5.028-14.062-4.428l-258.991,30.407c-9.065,1.064-15.901,8.75-15.901,17.877v5.5c-.157,8.909,7.1,17.028,15.947,17.867v27.938H22c-9.925,0-18,8.075-18,18v5.665c0,8.453,5.864,15.543,13.732,17.467v321.379h-7.732c-3.313,0-6,2.687-6,6v29.775c0,3.313,2.687,6,6,6h492c3.313,0,6-2.687,6-6v-29.775c0-3.313-2.687-6-6-6h-13.366V202.814h1.366ZM165.595,57.909v-5.5c0-3.042,2.279-5.604,5.301-5.959l258.991-30.407c1.695-.203,3.395.318,4.687,1.476,1.297,1.154,2.012,2.746,2.012,4.483v5.5c0,3.042-2.278,5.604-5.3,5.959-62.948,7.379-258.992,30.408-258.992,30.408-3.452.49-6.79-2.467-6.7-5.959Zm330.405,121.24v5.665c0,3.309-2.691,6-6,6h-229.156c-3.309,0-6-2.691-6-6v-5.665c0-3.309,2.691-6,6-6,50.883,0,179.758,0,229.156,0,3.309,0,6,2.691,6,6ZM16,121.714c0-3.309,2.691-6,6-6h252.173c3.309,0,6,2.691,6,6v5.665c0,3.309-2.691,6-6,6H22c-3.309,0-6-2.691-6-6v-5.665Zm410.774,344.511h-61.887v-108.829h61.887v108.829Zm6-120.829h-156.11v-12h164.447v12h-8.336Zm-79.887,12v108.829h-61.887v-108.829h61.887Zm143.113,138.604H16v-17.775c130.275,0,351.529,0,480,0v17.775Zm-19.366-29.775h-37.86v-108.829h8.336c3.313,0,6-2.687,6-6v-24c0-3.313-2.687-6-6-6h-176.447c-3.313,0-6,2.687-6,6v24c0,3.313,2.687,6,6,6h8.336v108.829H29.732V145.379h236.709v15.77h-5.598c-9.925,0-18,8.075-18,18,0,0,0,5.665,0,5.665,0,9.925,8.075,18,18,18h215.791v263.411Z"/><path class="cls-1" d="m78.188,216.229h43.081c3.313,0,6-2.687,6-6v-43.081c0-3.313-2.687-6-6-6h-43.081c-3.313,0-6,2.687-6,6v43.081c0,3.313,2.687,6,6,6Zm6-43.081h31.081v31.081h-31.081v-31.081Z"/><path class="cls-1" d="m217.986,161.149h-43.081c-3.313,0-6,2.687-6,6v43.081c0,3.313,2.687,6,6,6h43.081c3.313,0,6-2.687,6-6v-43.081c0-3.313-2.687-6-6-6Zm-6,43.081h-31.081v-31.081h31.081v31.081Z"/><path class="cls-1" d="m127.268,282.066v-43.08c0-3.313-2.687-6-6-6h-43.081c-3.313,0-6,2.687-6,6v43.08c0,3.313,2.687,6,6,6h43.081c3.313,0,6-2.687,6-6Zm-12-6h-31.081v-31.08h31.081v31.08Z"/><path class="cls-1" d="m217.986,232.986h-43.081c-3.313,0-6,2.687-6,6v43.08c0,3.313,2.687,6,6,6h43.081c3.313,0,6-2.687,6-6v-43.08c0-3.313-2.687-6-6-6Zm-6,43.08h-31.081v-31.08h31.081v31.08Z"/><path class="cls-1" d="m337.347,90.298c-3.313,0-6,2.687-6,6v43.081c0,3.313,2.687,6,6,6h43.081c3.313,0,6-2.687,6-6v-43.081c0-3.313-2.687-6-6-6h-43.081Zm37.081,43.081h-31.081v-31.081h31.081v31.081Z"/><path class="cls-1" d="m269.695,288.066h43.081c3.313,0,6-2.687,6-6v-43.08c0-3.313-2.687-6-6-6h-43.081c-3.313,0-6,2.687-6,6v43.08c0,3.313,2.687,6,6,6Zm6-43.08h31.081v31.08h-31.081v-31.08Z"/><path class="cls-1" d="m405,288.066h43.08c3.313,0,6-2.687,6-6v-43.08c0-3.313-2.687-6-6-6h-43.08c-3.313,0-6,2.687-6,6v43.08c0,3.313,2.687,6,6,6Zm6-43.08h31.08v31.08h-31.08v-31.08Z"/><path class="cls-1" d="m337.347,288.066h43.081c3.313,0,6-2.687,6-6v-43.08c0-3.313-2.687-6-6-6h-43.081c-3.313,0-6,2.687-6,6v43.08c0,3.313,2.687,6,6,6Zm6-43.08h31.081v31.08h-31.081v-31.08Z"/><path class="cls-1" d="m104.382,328.403c-2.534,13.161-.092,22.684,8.147,31.82.942,1.044,1.562,5.259,2.014,8.336,1.436,9.765,3.838,26.107,23.953,28.605,4.637.66,9.429-2.166,11.148-6.49,1.707,4.32,6.541,7.156,11.147,6.49,20.116-2.498,22.519-18.841,23.954-28.605.452-3.078,1.072-7.292,2.014-8.336,8.24-9.136,10.682-18.66,8.147-31.821-2.146-16.555-22.829-25.453-37.747-17.308-4.645-1.359-10.387-1.359-15.033,0-14.916-8.141-35.603.752-37.746,17.308Zm11.811,2.13c.902-9.424,14.101-13.551,21.84-7.917,4.232,2.791,6.403-.773,11.612-.536,5.199-.239,7.392,3.327,11.612.536,7.584-5.553,20.66-1.618,21.781,7.554,1.938,9.633.667,15.609-5.188,22.016-3.375,3.742-4.152,9.03-4.975,14.628-1.486,10.107-2.909,16.538-12.193,18.234l-2.302-20.926c-.476-4.607-4.65-7.79-9.201-7.407-4.247,0-7.8,3.183-8.266,7.406l-2.302,20.927c-9.284-1.696-10.708-8.127-12.193-18.234-.823-5.598-1.601-10.886-4.975-14.628-5.752-6.377-7.125-12.043-5.248-21.653Z"/><path class="cls-1" d="m196.446,410.264h-96.718c-3.313,0-6,2.687-6,6s2.687,6,6,6h96.718c7.914-.262,7.966-11.718,0-12Z"/><path class="cls-1" d="m426.37,88.805c-3.314,0-6,2.686-6,6,.274,7.943,11.727,7.941,12,0,0-3.314-2.686-6-6-6Z"/></svg>