<?xml version="1.0" ?><svg viewBox="0 0 512 512" xmlns="http://www.w3.org/2000/svg"><g id="Dental_Fees"><path d="M331.3418,421.084a39.8387,39.8387,0,0,1-38.3262-28.4L272.292,324.56a17.0294,17.0294,0,0,0-32.584,0l-20.7236,68.1226a40.06,40.06,0,0,1-77.6465-3.9961l-33.66-172.7119a110.0629,110.0629,0,0,1,46.84-112.6582c22.7373-15.2647,52.2978-16.56,77.1455-3.38a52.936,52.936,0,0,0,48.6738,0c24.8447-13.1782,54.4053-11.8842,77.1455,3.3809h0a110.0618,110.0618,0,0,1,46.8389,112.66l-33.6582,172.71A40.1347,40.1347,0,0,1,331.3418,421.084ZM256,296.4878a32.8464,32.8464,0,0,1,31.5986,23.4155l20.7237,68.1236a24.061,24.061,0,0,0,46.6357-2.4009l33.6592-172.7114a94.0948,94.0948,0,0,0-40.0527-96.3135c-17.834-11.9712-41.1045-12.94-60.73-2.53a68.9324,68.9324,0,0,1-63.669,0c-19.63-10.4111-42.8994-9.4409-60.7305,2.53a94.0959,94.0959,0,0,0-40.0537,96.312L157.043,385.6265a24.06,24.06,0,0,0,46.6347,2.4l20.7237-68.1226A32.8462,32.8462,0,0,1,256,296.4878Z"/><path d="M264,196.1674V160.14c6.9426,1.7368,11.6211,6.023,11.6211,9.96a8,8,0,0,0,16,0c0-13.0007-11.9021-23.8611-27.6211-26.2653V138.147a8,8,0,0,0-16,0v5.6878c-15.719,2.4042-27.6211,13.2646-27.6211,26.2653v14.8013c0,13.0006,11.9021,23.8611,27.6211,26.2652v36.0279c-6.9427-1.7369-11.6211-6.023-11.6211-9.96a8,8,0,0,0-16,0c0,13.0006,11.9021,23.8611,27.6211,26.2652v5.6879a8,8,0,0,0,16,0V263.5c15.719-2.4041,27.6211-13.2646,27.6211-26.2652V222.4326C291.6211,209.4319,279.719,198.5715,264,196.1674Zm-27.6211-11.266V170.1c0-3.9371,4.6784-8.2233,11.6211-9.96v34.7215C241.0573,193.1246,236.3789,188.8385,236.3789,184.9014Zm39.2422,52.333c0,3.9371-4.6785,8.2233-11.6211,9.96v-34.722c6.9426,1.7368,11.6211,6.023,11.6211,9.96Z"/></g></svg>